<svg width="196" height="374" viewBox="0 0 196 374" fill="none" xmlns="http://www.w3.org/2000/svg">
<circle cx="94.9732" cy="38.4703" r="38.4704" fill="#0069AC"/>
<path d="M101.372 46.6801H90.1927V45.1215L96.099 38.559C96.974 37.5668 97.5756 36.7621 97.9037 36.1449C98.2396 35.5199 98.4076 34.8754 98.4076 34.2113C98.4076 33.3207 98.1381 32.5902 97.599 32.0199C97.0599 31.4496 96.3412 31.1644 95.4427 31.1644C94.3646 31.1644 93.5248 31.473 92.9232 32.0902C92.3295 32.6996 92.0326 33.5511 92.0326 34.6449H89.8646C89.8646 33.0746 90.3685 31.8051 91.3763 30.8363C92.392 29.8676 93.7474 29.3832 95.4427 29.3832C97.0287 29.3832 98.2826 29.8011 99.2045 30.6371C100.126 31.4652 100.587 32.5707 100.587 33.9535C100.587 35.6332 99.517 37.6332 97.3763 39.9535L92.806 44.9105H101.372V46.6801Z" fill="white"/>
<path d="M75.6695 96.5635C75.6695 96.001 75.4703 95.5674 75.0719 95.2627C74.6793 94.958 73.9674 94.6504 72.9361 94.3398C71.9049 94.0293 71.0846 93.6836 70.4752 93.3027C69.3092 92.5703 68.7262 91.6152 68.7262 90.4375C68.7262 89.4062 69.1451 88.5566 69.983 87.8887C70.8268 87.2207 71.9195 86.8867 73.2613 86.8867C74.152 86.8867 74.9459 87.0508 75.6432 87.3789C76.3404 87.707 76.8883 88.1758 77.2867 88.7852C77.6852 89.3887 77.8844 90.0596 77.8844 90.7979H75.6695C75.6695 90.1299 75.4586 89.6084 75.0367 89.2334C74.6207 88.8525 74.0231 88.6621 73.2438 88.6621C72.5172 88.6621 71.9518 88.8174 71.5475 89.1279C71.149 89.4385 70.9498 89.8721 70.9498 90.4287C70.9498 90.8975 71.1666 91.29 71.6002 91.6064C72.0338 91.917 72.7486 92.2217 73.7447 92.5205C74.7408 92.8135 75.5406 93.1504 76.1441 93.5312C76.7477 93.9062 77.19 94.3398 77.4713 94.832C77.7525 95.3184 77.8932 95.8896 77.8932 96.5459C77.8932 97.6123 77.483 98.4619 76.6627 99.0947C75.8483 99.7217 74.7408 100.035 73.3404 100.035C72.4147 100.035 71.5621 99.8652 70.7828 99.5254C70.0094 99.1797 69.4059 98.7051 68.9723 98.1016C68.5445 97.498 68.3307 96.7949 68.3307 95.9922H70.5543C70.5543 96.7188 70.7945 97.2812 71.275 97.6797C71.7555 98.0781 72.444 98.2773 73.3404 98.2773C74.1139 98.2773 74.694 98.1221 75.0807 97.8115C75.4733 97.4951 75.6695 97.0791 75.6695 96.5635ZM85.3199 99.8594C85.2262 99.6777 85.1441 99.3818 85.0738 98.9717C84.3941 99.6807 83.5621 100.035 82.5777 100.035C81.6227 100.035 80.8434 99.7627 80.2399 99.2178C79.6363 98.6729 79.3346 97.999 79.3346 97.1963C79.3346 96.1826 79.7096 95.4062 80.4596 94.8672C81.2154 94.3223 82.2936 94.0498 83.694 94.0498H85.0035V93.4258C85.0035 92.9336 84.8658 92.541 84.5904 92.248C84.315 91.9492 83.8961 91.7998 83.3336 91.7998C82.8473 91.7998 82.4488 91.9229 82.1383 92.1689C81.8277 92.4092 81.6725 92.7168 81.6725 93.0918H79.5367C79.5367 92.5703 79.7096 92.084 80.0553 91.6328C80.401 91.1758 80.8697 90.8184 81.4615 90.5605C82.0592 90.3027 82.7242 90.1738 83.4566 90.1738C84.5699 90.1738 85.4576 90.4551 86.1197 91.0176C86.7818 91.5742 87.1217 92.3594 87.1393 93.373V97.6621C87.1393 98.5176 87.2594 99.2002 87.4996 99.71V99.8594H85.3199ZM82.9733 98.3213C83.3951 98.3213 83.7906 98.2188 84.1598 98.0137C84.5348 97.8086 84.816 97.5332 85.0035 97.1875V95.3945H83.8522C83.0611 95.3945 82.4664 95.5322 82.068 95.8076C81.6695 96.083 81.4703 96.4727 81.4703 96.9766C81.4703 97.3867 81.6051 97.7148 81.8746 97.9609C82.15 98.2012 82.5162 98.3213 82.9733 98.3213ZM90.1275 99.8594V91.9316H88.6774V90.3496H90.1275V89.4795C90.1275 88.4248 90.4205 87.6104 91.0065 87.0361C91.5924 86.4619 92.4127 86.1748 93.4674 86.1748C93.8424 86.1748 94.2408 86.2275 94.6627 86.333L94.61 88.0029C94.3756 87.9561 94.1031 87.9326 93.7926 87.9326C92.7731 87.9326 92.2633 88.457 92.2633 89.5059V90.3496H94.1969V91.9316H92.2633V99.8594H90.1275ZM99.734 100.035C98.3805 100.035 97.2818 99.6104 96.4381 98.7607C95.6002 97.9053 95.1813 96.7686 95.1813 95.3506V95.0869C95.1813 94.1377 95.3629 93.291 95.7262 92.5469C96.0953 91.7969 96.6109 91.2139 97.2731 90.7979C97.9352 90.3818 98.6734 90.1738 99.4879 90.1738C100.783 90.1738 101.782 90.5869 102.485 91.4131C103.194 92.2393 103.548 93.4082 103.548 94.9199V95.7812H97.3346C97.399 96.5664 97.6598 97.1875 98.1168 97.6445C98.5797 98.1016 99.1598 98.3301 99.857 98.3301C100.836 98.3301 101.632 97.9346 102.248 97.1436L103.399 98.2422C103.018 98.8105 102.508 99.2529 101.87 99.5693C101.237 99.8799 100.525 100.035 99.734 100.035ZM99.4791 91.8877C98.8932 91.8877 98.4186 92.0928 98.0553 92.5029C97.6979 92.9131 97.4693 93.4844 97.3697 94.2168H101.439V94.0586C101.392 93.3438 101.202 92.8047 100.868 92.4414C100.534 92.0723 100.071 91.8877 99.4791 91.8877ZM112.25 99.8594H110.035V87.0625H112.25V99.8594ZM116.758 90.3496L116.82 91.4482C117.523 90.5986 118.446 90.1738 119.588 90.1738C121.569 90.1738 122.577 91.3076 122.612 93.5752V99.8594H120.476V93.6982C120.476 93.0947 120.344 92.6494 120.081 92.3623C119.823 92.0693 119.398 91.9229 118.806 91.9229C117.945 91.9229 117.303 92.3125 116.881 93.0918V99.8594H114.746V90.3496H116.758ZM90.3385 116.017C90.3385 115.085 90.5231 114.247 90.8922 113.503C91.2613 112.753 91.7799 112.179 92.4479 111.78C93.1158 111.376 93.8834 111.174 94.7506 111.174C96.0338 111.174 97.0738 111.587 97.8707 112.413C98.6734 113.239 99.107 114.335 99.1715 115.7L99.1803 116.201C99.1803 117.139 98.9986 117.977 98.6354 118.715C98.2779 119.453 97.7623 120.024 97.0885 120.429C96.4205 120.833 95.6471 121.035 94.7682 121.035C93.4264 121.035 92.3512 120.59 91.5426 119.699C90.7399 118.803 90.3385 117.61 90.3385 116.122V116.017ZM92.4742 116.201C92.4742 117.18 92.6764 117.947 93.0807 118.504C93.485 119.055 94.0475 119.33 94.7682 119.33C95.4889 119.33 96.0484 119.049 96.4469 118.486C96.8512 117.924 97.0533 117.101 97.0533 116.017C97.0533 115.056 96.8453 114.294 96.4293 113.731C96.0191 113.169 95.4596 112.888 94.7506 112.888C94.0533 112.888 93.4996 113.166 93.0895 113.723C92.6793 114.273 92.4742 115.1 92.4742 116.201ZM105.965 113.301C105.684 113.254 105.394 113.23 105.095 113.23C104.117 113.23 103.458 113.605 103.118 114.355V120.859H100.982V111.35H103.021L103.074 112.413C103.589 111.587 104.304 111.174 105.218 111.174C105.523 111.174 105.775 111.215 105.974 111.297L105.965 113.301ZM73.4899 138.563C73.4899 138.001 73.2906 137.567 72.8922 137.263C72.4996 136.958 71.7877 136.65 70.7565 136.34C69.7252 136.029 68.9049 135.684 68.2955 135.303C67.1295 134.57 66.5465 133.615 66.5465 132.438C66.5465 131.406 66.9654 130.557 67.8033 129.889C68.6471 129.221 69.7399 128.887 71.0816 128.887C71.9723 128.887 72.7662 129.051 73.4635 129.379C74.1608 129.707 74.7086 130.176 75.107 130.785C75.5055 131.389 75.7047 132.06 75.7047 132.798H73.4899C73.4899 132.13 73.2789 131.608 72.857 131.233C72.441 130.853 71.8434 130.662 71.0641 130.662C70.3375 130.662 69.7721 130.817 69.3678 131.128C68.9693 131.438 68.7701 131.872 68.7701 132.429C68.7701 132.897 68.9869 133.29 69.4205 133.606C69.8541 133.917 70.569 134.222 71.565 134.521C72.5611 134.813 73.3609 135.15 73.9645 135.531C74.568 135.906 75.0104 136.34 75.2916 136.832C75.5729 137.318 75.7135 137.89 75.7135 138.546C75.7135 139.612 75.3033 140.462 74.483 141.095C73.6686 141.722 72.5611 142.035 71.1608 142.035C70.235 142.035 69.3824 141.865 68.6031 141.525C67.8297 141.18 67.2262 140.705 66.7926 140.102C66.3649 139.498 66.151 138.795 66.151 137.992H68.3746C68.3746 138.719 68.6149 139.281 69.0953 139.68C69.5758 140.078 70.2643 140.277 71.1608 140.277C71.9342 140.277 72.5143 140.122 72.901 139.812C73.2936 139.495 73.4899 139.079 73.4899 138.563ZM83.1402 141.859C83.0465 141.678 82.9645 141.382 82.8941 140.972C82.2145 141.681 81.3824 142.035 80.3981 142.035C79.443 142.035 78.6637 141.763 78.0602 141.218C77.4566 140.673 77.1549 139.999 77.1549 139.196C77.1549 138.183 77.5299 137.406 78.2799 136.867C79.0358 136.322 80.1139 136.05 81.5143 136.05H82.8238V135.426C82.8238 134.934 82.6861 134.541 82.4108 134.248C82.1354 133.949 81.7164 133.8 81.1539 133.8C80.6676 133.8 80.2691 133.923 79.9586 134.169C79.6481 134.409 79.4928 134.717 79.4928 135.092H77.357C77.357 134.57 77.5299 134.084 77.8756 133.633C78.2213 133.176 78.69 132.818 79.2818 132.561C79.8795 132.303 80.5445 132.174 81.277 132.174C82.3902 132.174 83.2779 132.455 83.94 133.018C84.6022 133.574 84.942 134.359 84.9596 135.373V139.662C84.9596 140.518 85.0797 141.2 85.3199 141.71V141.859H83.1402ZM80.7936 140.321C81.2154 140.321 81.6109 140.219 81.9801 140.014C82.3551 139.809 82.6363 139.533 82.8238 139.188V137.395H81.6725C80.8815 137.395 80.2867 137.532 79.8883 137.808C79.4899 138.083 79.2906 138.473 79.2906 138.977C79.2906 139.387 79.4254 139.715 79.6949 139.961C79.9703 140.201 80.3365 140.321 80.7936 140.321ZM87.9479 141.859V133.932H86.4977V132.35H87.9479V131.479C87.9479 130.425 88.2408 129.61 88.8268 129.036C89.4127 128.462 90.233 128.175 91.2877 128.175C91.6627 128.175 92.0611 128.228 92.483 128.333L92.4303 130.003C92.1959 129.956 91.9234 129.933 91.6129 129.933C90.5934 129.933 90.0836 130.457 90.0836 131.506V132.35H92.0172V133.932H90.0836V141.859H87.9479ZM97.5543 142.035C96.2008 142.035 95.1022 141.61 94.2584 140.761C93.4205 139.905 93.0016 138.769 93.0016 137.351V137.087C93.0016 136.138 93.1832 135.291 93.5465 134.547C93.9156 133.797 94.4313 133.214 95.0934 132.798C95.7555 132.382 96.4938 132.174 97.3082 132.174C98.6031 132.174 99.6022 132.587 100.305 133.413C101.014 134.239 101.369 135.408 101.369 136.92V137.781H95.1549C95.2193 138.566 95.4801 139.188 95.9371 139.645C96.4 140.102 96.9801 140.33 97.6774 140.33C98.6559 140.33 99.4527 139.935 100.068 139.144L101.219 140.242C100.838 140.811 100.329 141.253 99.69 141.569C99.0572 141.88 98.3453 142.035 97.5543 142.035ZM97.2994 133.888C96.7135 133.888 96.2389 134.093 95.8756 134.503C95.5182 134.913 95.2897 135.484 95.19 136.217H99.2594V136.059C99.2125 135.344 99.0221 134.805 98.6881 134.441C98.3541 134.072 97.8912 133.888 97.2994 133.888ZM117.936 135.795C117.936 137.049 117.719 138.15 117.286 139.1C116.852 140.043 116.231 140.77 115.422 141.279C114.62 141.783 113.694 142.035 112.645 142.035C111.608 142.035 110.682 141.783 109.868 141.279C109.059 140.77 108.432 140.046 107.987 139.108C107.547 138.171 107.325 137.09 107.319 135.865V135.145C107.319 133.896 107.539 132.795 107.978 131.84C108.423 130.885 109.047 130.155 109.85 129.651C110.659 129.142 111.585 128.887 112.628 128.887C113.671 128.887 114.593 129.139 115.396 129.643C116.205 130.141 116.829 130.861 117.268 131.805C117.708 132.742 117.93 133.835 117.936 135.083V135.795ZM115.713 135.127C115.713 133.709 115.443 132.622 114.904 131.866C114.371 131.11 113.612 130.732 112.628 130.732C111.667 130.732 110.914 131.11 110.369 131.866C109.83 132.616 109.554 133.68 109.543 135.057V135.795C109.543 137.201 109.815 138.288 110.36 139.056C110.911 139.823 111.672 140.207 112.645 140.207C113.63 140.207 114.385 139.832 114.913 139.082C115.446 138.332 115.713 137.236 115.713 135.795V135.127ZM125.706 140.928C125.079 141.666 124.188 142.035 123.034 142.035C122.003 142.035 121.22 141.733 120.687 141.13C120.16 140.526 119.896 139.653 119.896 138.511V132.35H122.032V138.484C122.032 139.691 122.533 140.295 123.535 140.295C124.572 140.295 125.272 139.923 125.635 139.179V132.35H127.771V141.859H125.758L125.706 140.928ZM132.623 130.038V132.35H134.301V133.932H132.623V139.24C132.623 139.604 132.693 139.867 132.834 140.031C132.98 140.189 133.238 140.269 133.607 140.269C133.853 140.269 134.102 140.239 134.354 140.181V141.833C133.868 141.968 133.399 142.035 132.948 142.035C131.307 142.035 130.487 141.13 130.487 139.319V133.932H128.922V132.35H130.487V130.038H132.623Z" fill="black"/>
<rect x="11.9884" y="213.244" width="168" height="63" rx="31.5" fill="#1DE9B6"/>
<rect x="11.9884" y="213.244" width="168" height="63" rx="31.5" fill="#1DE9B6"/>
<rect x="11.9884" y="213.244" width="168" height="63" rx="31.5" fill="#1DE9B6"/>
<path d="M68.2305 248.704C68.2305 248.142 68.0312 247.708 67.6328 247.403C67.2402 247.099 66.5283 246.791 65.4971 246.48C64.4658 246.17 63.6455 245.824 63.0361 245.443C61.8701 244.711 61.2871 243.756 61.2871 242.578C61.2871 241.547 61.7061 240.697 62.5439 240.029C63.3877 239.361 64.4805 239.027 65.8223 239.027C66.7129 239.027 67.5068 239.191 68.2041 239.52C68.9014 239.848 69.4492 240.316 69.8477 240.926C70.2461 241.529 70.4453 242.2 70.4453 242.938L68.2305 242.938C68.2305 242.271 68.0195 241.749 67.5977 241.374C67.1816 240.993 66.584 240.803 65.8047 240.803C65.0781 240.803 64.5127 240.958 64.1084 241.269C63.71 241.579 63.5107 242.013 63.5107 242.569C63.5107 243.038 63.7275 243.431 64.1611 243.747C64.5947 244.058 65.3096 244.362 66.3057 244.661C67.3018 244.954 68.1016 245.291 68.7051 245.672C69.3086 246.047 69.751 246.48 70.0322 246.973C70.3135 247.459 70.4541 248.03 70.4541 248.687C70.4541 249.753 70.0439 250.603 69.2236 251.235C68.4092 251.862 67.3018 252.176 65.9014 252.176C64.9756 252.176 64.123 252.006 63.3437 251.666C62.5703 251.32 61.9668 250.846 61.5332 250.242C61.1055 249.639 60.8916 248.936 60.8916 248.133L63.1152 248.133C63.1152 248.859 63.3555 249.422 63.8359 249.82C64.3164 250.219 65.0049 250.418 65.9014 250.418C66.6748 250.418 67.2549 250.263 67.6416 249.952C68.0342 249.636 68.2305 249.22 68.2305 248.704ZM80.3184 249.021L75.3613 249.021L74.3242 252L72.0127 252L76.8467 239.203L78.8418 239.203L83.6846 252L81.3643 252L80.3184 249.021ZM75.9854 247.228L79.6943 247.228L77.8398 241.919L75.9854 247.228ZM93.2676 246.577L88.1172 246.577L88.1172 252L85.8936 252L85.8936 239.203L94.0234 239.203L94.0234 240.996L88.1172 240.996L88.1172 244.802L93.2676 244.802L93.2676 246.577ZM104.02 246.287L98.7637 246.287L98.7637 250.225L104.907 250.225L104.907 252L96.54 252L96.54 239.203L104.846 239.203L104.846 240.996L98.7637 240.996L98.7637 244.529L104.02 244.529L104.02 246.287ZM115.047 252L112.832 252L112.832 239.203L115.047 239.203L115.047 252ZM128.682 252L126.458 252L120.754 242.921L120.754 252L118.53 252L118.53 239.203L120.754 239.203L126.476 248.317L126.476 239.203L128.682 239.203L128.682 252Z" fill="white"/>
<rect x="10" y="309.826" width="168" height="63" rx="31.5" fill="#1DE9B6"/>
<rect x="10" y="309.826" width="168" height="63" rx="31.5" fill="#1DE9B6"/>
<rect x="10" y="309.826" width="168" height="63" rx="31.5" fill="#1DE9B6"/>
<path d="M58.1831 343.747C58.1831 343.185 57.9839 342.751 57.5854 342.447C57.1929 342.142 56.481 341.834 55.4497 341.524C54.4185 341.213 53.5981 340.867 52.9888 340.487C51.8228 339.754 51.2397 338.799 51.2397 337.621C51.2397 336.59 51.6587 335.74 52.4966 335.073C53.3403 334.405 54.4331 334.071 55.7749 334.071C56.6655 334.071 57.4595 334.235 58.1567 334.563C58.854 334.891 59.4019 335.36 59.8003 335.969C60.1987 336.573 60.3979 337.243 60.3979 337.982L58.1831 337.982C58.1831 337.314 57.9722 336.792 57.5503 336.417C57.1343 336.036 56.5366 335.846 55.7573 335.846C55.0308 335.846 54.4653 336.001 54.061 336.312C53.6626 336.622 53.4634 337.056 53.4634 337.613C53.4634 338.081 53.6802 338.474 54.1138 338.79C54.5474 339.101 55.2622 339.406 56.2583 339.704C57.2544 339.997 58.0542 340.334 58.6577 340.715C59.2612 341.09 59.7036 341.524 59.9849 342.016C60.2661 342.502 60.4067 343.073 60.4067 343.73C60.4067 344.796 59.9966 345.646 59.1763 346.279C58.3618 346.906 57.2544 347.219 55.854 347.219C54.9282 347.219 54.0757 347.049 53.2964 346.709C52.5229 346.364 51.9194 345.889 51.4858 345.285C51.0581 344.682 50.8442 343.979 50.8442 343.176L53.0679 343.176C53.0679 343.903 53.3081 344.465 53.7886 344.864C54.269 345.262 54.9575 345.461 55.854 345.461C56.6274 345.461 57.2075 345.306 57.5942 344.995C57.9868 344.679 58.1831 344.263 58.1831 343.747ZM70.271 344.064L65.314 344.064L64.2769 347.043L61.9653 347.043L66.7993 334.246L68.7944 334.246L73.6372 347.043L71.3169 347.043L70.271 344.064ZM65.938 342.271L69.647 342.271L67.7925 336.962L65.938 342.271ZM83.2202 341.62L78.0698 341.62L78.0698 347.043L75.8462 347.043L75.8462 334.246L83.9761 334.246L83.9761 336.039L78.0698 336.039L78.0698 339.845L83.2202 339.845L83.2202 341.62ZM93.9722 341.33L88.7163 341.33L88.7163 345.268L94.8599 345.268L94.8599 347.043L86.4927 347.043L86.4927 334.246L94.7983 334.246L94.7983 336.039L88.7163 336.039L88.7163 339.573L93.9722 339.573L93.9722 341.33ZM112.866 340.979C112.866 342.233 112.649 343.334 112.215 344.283C111.782 345.227 111.161 345.953 110.352 346.463C109.549 346.967 108.624 347.219 107.575 347.219C106.538 347.219 105.612 346.967 104.797 346.463C103.989 345.953 103.362 345.23 102.917 344.292C102.477 343.355 102.254 342.274 102.249 341.049L102.249 340.328C102.249 339.08 102.468 337.979 102.908 337.024C103.353 336.069 103.977 335.339 104.78 334.835C105.588 334.325 106.514 334.071 107.557 334.071C108.6 334.071 109.523 334.323 110.326 334.826C111.134 335.324 111.758 336.045 112.198 336.989C112.637 337.926 112.86 339.019 112.866 340.267L112.866 340.979ZM110.642 340.311C110.642 338.893 110.373 337.806 109.833 337.05C109.3 336.294 108.542 335.916 107.557 335.916C106.596 335.916 105.843 336.294 105.298 337.05C104.759 337.8 104.484 338.864 104.472 340.24L104.472 340.979C104.472 342.385 104.745 343.472 105.29 344.24C105.84 345.007 106.602 345.391 107.575 345.391C108.559 345.391 109.315 345.016 109.842 344.266C110.375 343.516 110.642 342.42 110.642 340.979L110.642 340.311ZM125.191 334.246L125.191 342.798C125.191 344.157 124.754 345.236 123.881 346.032C123.014 346.823 121.857 347.219 120.41 347.219C118.945 347.219 117.782 346.829 116.92 346.05C116.059 345.265 115.628 344.178 115.628 342.789L115.628 334.246L117.843 334.246L117.843 342.807C117.843 343.662 118.06 344.316 118.494 344.767C118.927 345.218 119.566 345.444 120.41 345.444C122.121 345.444 122.976 344.541 122.976 342.737L122.976 334.246L125.191 334.246ZM137.569 336.039L133.579 336.039L133.579 347.043L131.373 347.043L131.373 336.039L127.417 336.039L127.417 334.246L137.569 334.246L137.569 336.039Z" fill="white"/>
</svg>
